<?xml version="1.0" encoding="utf-8"?>
<!-- Generator: Adobe Illustrator 17.1.0, SVG Export Plug-In . SVG Version: 6.00 Build 0)  -->
<!DOCTYPE svg PUBLIC "-//W3C//DTD SVG 1.1//EN" "http://www.w3.org/Graphics/SVG/1.1/DTD/svg11.dtd">
<svg version="1.1" id="Layer_1" xmlns="http://www.w3.org/2000/svg" xmlns:xlink="http://www.w3.org/1999/xlink" x="0px" y="0px"
	 viewBox="0 0 421 421" enable-background="new 0 0 421 421" xml:space="preserve">
<path fill="#3E4651" d="M23.7,211.7c0-103.9,84.2-188.1,188.1-188.1c103.9,0,188.1,84.2,188.1,188.1s-84.2,188.1-188.1,188.1"/>
<path fill="#3E4651" d="M211.8,399.9c-103.9,0-188.1-84.2-188.1-188.1"/>
<g>
	<g>
		<path fill="#FF8A28" d="M216.4,300.8c-38,0-73-12.6-101-33.9l-11.2,19.5c29.7,26.8,69.1,43.2,112.3,43.2c0,0,0.1,0,0.1,0v-28.7
			C216.5,300.8,216.4,300.8,216.4,300.8z"/>
		<path fill="#EF7820" d="M317.4,266.9c-28.1,21.2-63,33.9-100.9,33.9v28.7c43.2,0,82.5-16.4,112.2-43.2L317.4,266.9z"/>
		<path fill="#EF7820" d="M216.4,91.9l-101,175c28.1,21.3,63.1,33.9,101,33.9c0,0,0.1,0,0.1,0V92.1L216.4,91.9z"/>
		<path fill="#D85309" d="M216.5,92.1v208.7c37.9,0,72.9-12.7,100.9-33.9L216.5,92.1z"/>
	</g>
	<path fill="#D14330" d="M216.1,245.6c0,1.6,0.2,3.2,0.4,4.8v-9.5C216.3,242.4,216.1,243.9,216.1,245.6z"/>
	<path fill="#BF3426" d="M248.2,213.5c-16.1,0-29.4,11.9-31.7,27.3v9.5c2.3,15.4,15.6,27.3,31.7,27.3c17.7,0,32.1-14.4,32.1-32.1
		C280.2,227.9,265.9,213.5,248.2,213.5z"/>
	<path fill="#D14330" d="M208.4,193.6c0,11-8.9,19.9-19.9,19.9c-11,0-19.9-8.9-19.9-19.9c0-11,8.9-19.9,19.9-19.9
		C199.5,173.7,208.4,182.6,208.4,193.6z"/>
	<path fill="#D14330" d="M214.5,154.9c0,2.6,0.8,5.1,2,7.2v-14.3C215.2,149.8,214.5,152.3,214.5,154.9z"/>
	<path fill="#BF3426" d="M228.3,141.1c-5,0-9.4,2.7-11.8,6.7v14.3c2.4,4,6.8,6.7,11.8,6.7c7.6,0,13.8-6.2,13.8-13.8
		C242.1,147.3,235.9,141.1,228.3,141.1z"/>
	<path fill="#E5E5E5" d="M190.7,256.6c0,6.1-5,11.1-11.1,11.1c-6.1,0-11.1-5-11.1-11.1c0-6.1,4.9-11.1,11.1-11.1
		C185.7,245.6,190.7,250.5,190.7,256.6z"/>
	<path fill="#E5E5E5" d="M244.9,185.3c0,4-3.2,7.2-7.2,7.2c-4,0-7.2-3.2-7.2-7.2c0-4,3.2-7.2,7.2-7.2
		C241.6,178.1,244.9,181.3,244.9,185.3z"/>
</g>
</svg>
